<svg class="write-page" color-interpolation="linearRGB" width="1275px" height="1650px" xmlns="http://www.w3.org/2000/svg" xmlns:xlink="http://www.w3.org/1999/xlink">
  <g class="write-content write-v3" xruling="30" yruling="30" marginLeft="30" papercolor="#FFFFFF" rulecolor="#7F0000FF">
    <g class="ruleline write-std-ruling write-scale-down" fill="none" stroke="#0000FF" stroke-opacity="0.498" stroke-width="1" shape-rendering="crispEdges" vector-effect="non-scaling-stroke">
      <rect class="pagerect" fill="#FFFFFF" stroke="none" x="0" y="0" width="1275" height="1650" />
      <path class="yrule_1" d="M0 30 l1275 0" />
      <path d="M0 60 l1275 0" />
      <path d="M0 90 l1275 0" />
      <path d="M0 120 l1275 0" />
      <path d="M0 150 l1275 0" />
      <path d="M0 180 l1275 0" />
      <path d="M0 210 l1275 0" />
      <path d="M0 240 l1275 0" />
      <path d="M0 270 l1275 0" />
      <path d="M0 300 l1275 0" />
      <path d="M0 330 l1275 0" />
      <path d="M0 360 l1275 0" />
      <path d="M0 390 l1275 0" />
      <path d="M0 420 l1275 0" />
      <path d="M0 450 l1275 0" />
      <path d="M0 480 l1275 0" />
      <path d="M0 510 l1275 0" />
      <path d="M0 540 l1275 0" />
      <path d="M0 570 l1275 0" />
      <path d="M0 600 l1275 0" />
      <path d="M0 630 l1275 0" />
      <path d="M0 660 l1275 0" />
      <path d="M0 690 l1275 0" />
      <path d="M0 720 l1275 0" />
      <path d="M0 750 l1275 0" />
      <path d="M0 780 l1275 0" />
      <path d="M0 810 l1275 0" />
      <path d="M0 840 l1275 0" />
      <path d="M0 870 l1275 0" />
      <path d="M0 900 l1275 0" />
      <path d="M0 930 l1275 0" />
      <path d="M0 960 l1275 0" />
      <path d="M0 990 l1275 0" />
      <path d="M0 1020 l1275 0" />
      <path d="M0 1050 l1275 0" />
      <path d="M0 1080 l1275 0" />
      <path d="M0 1110 l1275 0" />
      <path d="M0 1140 l1275 0" />
      <path d="M0 1170 l1275 0" />
      <path d="M0 1200 l1275 0" />
      <path d="M0 1230 l1275 0" />
      <path d="M0 1260 l1275 0" />
      <path d="M0 1290 l1275 0" />
      <path d="M0 1320 l1275 0" />
      <path d="M0 1350 l1275 0" />
      <path d="M0 1380 l1275 0" />
      <path d="M0 1410 l1275 0" />
      <path d="M0 1440 l1275 0" />
      <path d="M0 1470 l1275 0" />
      <path d="M0 1500 l1275 0" />
      <path d="M0 1530 l1275 0" />
      <path d="M0 1560 l1275 0" />
      <path d="M0 1590 l1275 0" />
      <path d="M0 1620 l1275 0" />
      <path class="xrule_1" d="M30 0 l0 1650" />
      <path d="M60 0 l0 1650" />
      <path d="M90 0 l0 1650" />
      <path d="M120 0 l0 1650" />
      <path d="M150 0 l0 1650" />
      <path d="M180 0 l0 1650" />
      <path d="M210 0 l0 1650" />
      <path d="M240 0 l0 1650" />
      <path d="M270 0 l0 1650" />
      <path d="M300 0 l0 1650" />
      <path d="M330 0 l0 1650" />
      <path d="M360 0 l0 1650" />
      <path d="M390 0 l0 1650" />
      <path d="M420 0 l0 1650" />
      <path d="M450 0 l0 1650" />
      <path d="M480 0 l0 1650" />
      <path d="M510 0 l0 1650" />
      <path d="M540 0 l0 1650" />
      <path d="M570 0 l0 1650" />
      <path d="M600 0 l0 1650" />
      <path d="M630 0 l0 1650" />
      <path d="M660 0 l0 1650" />
      <path d="M690 0 l0 1650" />
      <path d="M720 0 l0 1650" />
      <path d="M750 0 l0 1650" />
      <path d="M780 0 l0 1650" />
      <path d="M810 0 l0 1650" />
      <path d="M840 0 l0 1650" />
      <path d="M870 0 l0 1650" />
      <path d="M900 0 l0 1650" />
      <path d="M930 0 l0 1650" />
      <path d="M960 0 l0 1650" />
      <path d="M990 0 l0 1650" />
      <path d="M1020 0 l0 1650" />
      <path d="M1050 0 l0 1650" />
      <path d="M1080 0 l0 1650" />
      <path d="M1110 0 l0 1650" />
      <path d="M1140 0 l0 1650" />
      <path d="M1170 0 l0 1650" />
      <path d="M1200 0 l0 1650" />
      <path d="M1230 0 l0 1650" />
      <path d="M1260 0 l0 1650" />
      <path class="leftmargin" stroke="#FF0000" d="M30 0 l0 1650" />
    </g>
  </g>
</svg>
