<svg class="write-page" color-interpolation="linearRGB" width="922px" height="1660px" xmlns="http://www.w3.org/2000/svg" xmlns:xlink="http://www.w3.org/1999/xlink">
  <g class="write-content write-v3" xruling="30" yruling="30" marginLeft="30" papercolor="#FFFFFF" rulecolor="#7F0000FF">
    <g class="ruleline write-std-ruling write-scale-down" fill="none" stroke="#0000FF" stroke-opacity="0.498" stroke-width="1" shape-rendering="crispEdges" vector-effect="non-scaling-stroke">
      <rect class="pagerect" fill="#FFFFFF" stroke="none" x="0" y="0" width="922" height="1660" />
      <path class="yrule_1" d="M0 30 l922 0" />
      <path d="M0 60 l922 0" />
      <path d="M0 90 l922 0" />
      <path d="M0 120 l922 0" />
      <path d="M0 150 l922 0" />
      <path d="M0 180 l922 0" />
      <path d="M0 210 l922 0" />
      <path d="M0 240 l922 0" />
      <path d="M0 270 l922 0" />
      <path d="M0 300 l922 0" />
      <path d="M0 330 l922 0" />
      <path d="M0 360 l922 0" />
      <path d="M0 390 l922 0" />
      <path d="M0 420 l922 0" />
      <path d="M0 450 l922 0" />
      <path d="M0 480 l922 0" />
      <path d="M0 510 l922 0" />
      <path d="M0 540 l922 0" />
      <path d="M0 570 l922 0" />
      <path d="M0 600 l922 0" />
      <path d="M0 630 l922 0" />
      <path d="M0 660 l922 0" />
      <path d="M0 690 l922 0" />
      <path d="M0 720 l922 0" />
      <path d="M0 750 l922 0" />
      <path d="M0 780 l922 0" />
      <path d="M0 810 l922 0" />
      <path d="M0 840 l922 0" />
      <path d="M0 870 l922 0" />
      <path d="M0 900 l922 0" />
      <path d="M0 930 l922 0" />
      <path d="M0 960 l922 0" />
      <path d="M0 990 l922 0" />
      <path d="M0 1020 l922 0" />
      <path d="M0 1050 l922 0" />
      <path d="M0 1080 l922 0" />
      <path d="M0 1110 l922 0" />
      <path d="M0 1140 l922 0" />
      <path d="M0 1170 l922 0" />
      <path d="M0 1200 l922 0" />
      <path d="M0 1230 l922 0" />
      <path d="M0 1260 l922 0" />
      <path d="M0 1290 l922 0" />
      <path d="M0 1320 l922 0" />
      <path d="M0 1350 l922 0" />
      <path d="M0 1380 l922 0" />
      <path d="M0 1410 l922 0" />
      <path d="M0 1440 l922 0" />
      <path d="M0 1470 l922 0" />
      <path d="M0 1500 l922 0" />
      <path d="M0 1530 l922 0" />
      <path d="M0 1560 l922 0" />
      <path d="M0 1590 l922 0" />
      <path d="M0 1620 l922 0" />
      <path d="M0 1650 l922 0" />
      <path class="xrule_1" d="M30 0 l0 1660" />
      <path d="M60 0 l0 1660" />
      <path d="M90 0 l0 1660" />
      <path d="M120 0 l0 1660" />
      <path d="M150 0 l0 1660" />
      <path d="M180 0 l0 1660" />
      <path d="M210 0 l0 1660" />
      <path d="M240 0 l0 1660" />
      <path d="M270 0 l0 1660" />
      <path d="M300 0 l0 1660" />
      <path d="M330 0 l0 1660" />
      <path d="M360 0 l0 1660" />
      <path d="M390 0 l0 1660" />
      <path d="M420 0 l0 1660" />
      <path d="M450 0 l0 1660" />
      <path d="M480 0 l0 1660" />
      <path d="M510 0 l0 1660" />
      <path d="M540 0 l0 1660" />
      <path d="M570 0 l0 1660" />
      <path d="M600 0 l0 1660" />
      <path d="M630 0 l0 1660" />
      <path d="M660 0 l0 1660" />
      <path d="M690 0 l0 1660" />
      <path d="M720 0 l0 1660" />
      <path d="M750 0 l0 1660" />
      <path d="M780 0 l0 1660" />
      <path d="M810 0 l0 1660" />
      <path d="M840 0 l0 1660" />
      <path d="M870 0 l0 1660" />
      <path d="M900 0 l0 1660" />
      <path class="leftmargin" stroke="#FF0000" d="M30 0 l0 1660" />
    </g>
  </g>
</svg>
